<svg width="12" height="17" viewBox="0 0 12 17" fill="none" xmlns="http://www.w3.org/2000/svg">
<path fill-rule="evenodd" clip-rule="evenodd" d="M6.43994 0.680054C2.86325 0.680054 0.439941 3.10139 0.439941 5.66467C0.439941 10.8436 5.37654 16.5268 5.23994 16.8801C5.65098 16.8384 5.74321 16.8801 6.43994 16.8801C5.94567 16.8739 6.03115 16.8384 6.43994 16.8801C6.30559 16.52 11.2399 10.7423 11.2399 5.66467C11.2399 3.10139 8.81663 0.680054 6.43994 0.680054ZM6.43994 8.15698C4.84649 8.15698 4.03994 7.32142 4.03994 6.91082C4.03994 5.25615 4.84649 4.41852 6.43994 4.41852C6.83339 4.41852 7.63994 5.25615 7.63994 6.91082C7.63994 7.32142 6.83339 8.15698 6.43994 8.15698Z" fill="#5C5C5C"/>
</svg>
